<svg xmlns="http://www.w3.org/2000/svg" width="32.254" height="32.254" viewBox="0 0 32.254 32.254"><defs><style>.a{fill:#28516a;}</style></defs><path class="a" d="M329.78,189.56a3.78,3.78,0,1,1,3.78-3.78A3.784,3.784,0,0,1,329.78,189.56Z" transform="translate(-305.463 -170.535)"/><path class="a" d="M31.309,455.78H.945A.945.945,0,0,1,0,454.835v-1.89A.945.945,0,0,1,.945,452H31.309a.945.945,0,0,1,.945.945v1.89A.945.945,0,0,1,31.309,455.78Z" transform="translate(0 -423.525)"/><path class="a" d="M290.871,315.633a5.658,5.658,0,0,1-6.513,0,6.666,6.666,0,0,0-2.1,1.878V319.5a2.834,2.834,0,0,1-1.26,2.356v.479h13.229v-.945A6.619,6.619,0,0,0,290.871,315.633Z" transform="translate(-263.298 -295.749)"/><path class="a" d="M17.064,212H1.945a.945.945,0,0,0-.945.945v9.45a.945.945,0,0,0,.945.945H6.3l-.63,1.89h7.662l-.63-1.89h4.359a.945.945,0,0,0,.945-.945v-9.45A.945.945,0,0,0,17.064,212Z" transform="translate(-0.937 -198.645)"/><path class="a" d="M97.064,0H83.2A2.207,2.207,0,0,0,81,2.2v5.04a2.207,2.207,0,0,0,2.2,2.2h7.9l3.542,2.361a.945.945,0,0,0,1.469-.786V9.45h.945a2.207,2.207,0,0,0,2.2-2.2V2.2A2.207,2.207,0,0,0,97.064,0Zm-2.52,5.67h-8.82a.945.945,0,1,1,0-1.89h8.82a.945.945,0,0,1,0,1.89Z" transform="translate(-75.897)"/></svg>