<svg xmlns="http://www.w3.org/2000/svg" width="36.211" height="31.826" viewBox="0 0 36.211 31.826"><defs><style>.a{fill:#28516a;}</style></defs><path class="a" d="M211,240h6.365v2.122H211Zm0,0" transform="translate(-196.077 -223.026)"/><path class="a" d="M29.377,91.031H23.41v1.061a1.06,1.06,0,0,1-1.061,1.061H13.862A1.06,1.06,0,0,1,12.8,92.092V91.031H6.833a3.179,3.179,0,0,1-3.019-2.176L0,77.41v23.169a3.186,3.186,0,0,0,3.183,3.183H33.028a3.186,3.186,0,0,0,3.183-3.183V77.411L32.4,88.855A3.178,3.178,0,0,1,29.377,91.031Zm0,0" transform="translate(0 -71.935)"/><path class="a" d="M46.332,0H37.845a3.186,3.186,0,0,0-3.183,3.183V4.243H25.809l4,12.005a1.061,1.061,0,0,0,1.007.725h5.968V15.913a1.06,1.06,0,0,1,1.061-1.061h8.487a1.06,1.06,0,0,1,1.061,1.061v1.061h5.968a1.061,1.061,0,0,0,1.007-.725l4-12.005H49.515V3.183A3.186,3.186,0,0,0,46.332,0ZM36.784,4.243V3.183a1.061,1.061,0,0,1,1.061-1.061h8.487a1.061,1.061,0,0,1,1.061,1.061V4.243Zm0,0" transform="translate(-23.983 0)"/></svg>