<svg xmlns="http://www.w3.org/2000/svg" width="38.065" height="32.29" viewBox="0 0 38.065 32.29"><defs><style>.a{fill:#28516a;}</style></defs><g transform="translate(29.627 17.433)"><path class="a" d="M401.438,273.32h-2.944a7.657,7.657,0,0,1,.464,2.632v11.126a3.281,3.281,0,0,1-.189,1.1h4.867a3.3,3.3,0,0,0,3.3-3.3v-6.065A5.5,5.5,0,0,0,401.438,273.32Z" transform="translate(-398.494 -273.32)"/></g><g transform="translate(0 17.433)"><path class="a" d="M7.975,275.953a7.657,7.657,0,0,1,.464-2.632H5.495A5.5,5.5,0,0,0,0,278.816v6.065a3.3,3.3,0,0,0,3.3,3.3H8.164a3.282,3.282,0,0,1-.189-1.1Z" transform="translate(0 -273.321)"/></g><g transform="translate(10.173 14.57)"><g transform="translate(0 0)"><path class="a" d="M149.054,234.815h-6.73a5.5,5.5,0,0,0-5.495,5.495v11.126a1.1,1.1,0,0,0,1.1,1.1H153.45a1.1,1.1,0,0,0,1.1-1.1V240.31A5.5,5.5,0,0,0,149.054,234.815Z" transform="translate(-136.829 -234.815)"/></g></g><g transform="translate(12.424 0)"><g transform="translate(0 0)"><path class="a" d="M173.722,38.84a6.607,6.607,0,1,0,6.608,6.608A6.616,6.616,0,0,0,173.722,38.84Z" transform="translate(-167.114 -38.84)"/></g></g><g transform="translate(2.486 6.16)"><path class="a" d="M38.385,121.689a4.94,4.94,0,1,0,4.942,4.942A4.948,4.948,0,0,0,38.385,121.689Z" transform="translate(-33.443 -121.689)"/></g><g transform="translate(25.695 6.16)"><path class="a" d="M350.549,121.689a4.942,4.942,0,1,0,4.942,4.942A4.948,4.948,0,0,0,350.549,121.689Z" transform="translate(-345.607 -121.689)"/></g></svg>